<?xml version="1.0" encoding="UTF-8" standalone="no"?>
<svg width="72" height="72" viewBox="0 0 36 36" aria-hidden="true" role="img" class="iconify iconify--twemoji" preserveAspectRatio="xMidYMid" version="1.1" id="svg16" xmlns="http://www.w3.org/2000/svg" xmlns:svg="http://www.w3.org/2000/svg">
  <defs id="defs20"/>
  <path fill="#3b88c3" d="m 36,32 a 4,4 0 0 1 -4,4 H 4 A 4,4 0 0 1 0,32 V 4 A 4,4 0 0 1 4,0 h 28 a 4,4 0 0 1 4,4 z" id="path12" style="fill:#2e2f8b;fill-opacity:1"/>
  <path d="m 17.483038,30.485503 q -3.627743,0 -5.783855,-1.916544 -2.1561123,-1.916544 -2.1561123,-5.270496 h 3.0801603 q 0,2.087664 1.334736,3.285504 1.334736,1.163616 3.525071,1.163616 2.121888,0 3.388176,-1.232064 1.266288,-1.232064 1.266288,-3.217056 0,-1.505856 -0.821376,-2.601024 -0.787152,-1.129392 -2.293008,-1.54008 l -3.798863,-1.060944 q -2.361456,-0.68448 -3.730416,-2.429904 -1.334736,-1.779648 -1.334736,-4.175328 0,-1.9849915 0.889824,-3.4908475 0.889824,-1.505856 2.498352,-2.3272319 1.608528,-0.8556 3.696191,-0.8556 2.121888,0 3.730416,0.8556 1.642752,0.8213759 2.5668,2.3272319 0.924048,1.471632 0.924048,3.4223995 h -3.08016 q 0,-1.7111996 -1.163616,-2.7721435 -1.163616,-1.095168 -2.977488,-1.095168 -1.813871,0 -2.943263,1.095168 -1.129392,1.0609439 -1.129392,2.7721435 0,1.36896 0.718704,2.361456 0.752928,0.958272 2.087664,1.334736 l 3.901535,1.095168 q 2.498352,0.68448 3.867312,2.601024 1.403184,1.88232 1.403184,4.483344 0,3.285504 -2.087664,5.236272 -2.087664,1.950768 -5.578512,1.950768 z" style="fill:#ffffff" id="path1896"/>
</svg>
